<?xml version="1.0" encoding="utf-8"?>
<!-- Generator: Adobe Illustrator 24.0.1, SVG Export Plug-In . SVG Version: 6.00 Build 0)  -->
<svg version="1.1" id="Logo" xmlns="http://www.w3.org/2000/svg" xmlns:xlink="http://www.w3.org/1999/xlink" x="0px" y="0px"
	 viewBox="0 0 1215.4 274.3" style="enable-background:new 0 0 1215.4 274.3;" xml:space="preserve">
<style type="text/css">
	.st0{display:none;}
	.st1{display:inline;fill:url(#SVGID_1_);}
	.st2{fill-rule:evenodd;clip-rule:evenodd;fill:#0F0F0F;}
	.st3{fill-rule:evenodd;clip-rule:evenodd;fill:#FFFFFF;}
	.st4{fill-rule:evenodd;clip-rule:evenodd;fill:#ED1C24;}
	.st5{fill:#FFFFFF;}
	.st6{fill:#ED1C24;}
</style>
<g id="Body">
	<g id="Stroke" class="st0">
		
			<linearGradient id="SVGID_1_" gradientUnits="userSpaceOnUse" x1="138.4" y1="1085.15" x2="1215.4" y2="1085.15" gradientTransform="matrix(1 0 0 1 0 -948)">
			<stop  offset="0.1" style="stop-color:#FFFFFF;stop-opacity:0"/>
			<stop  offset="1" style="stop-color:#FFFFFF;stop-opacity:0.62"/>
		</linearGradient>
		<path class="st1" d="M1212.5,2l-104.7,270.3H140.4V2H1212.5 M1215.4,0h-2.9H140.4h-2v2v270.3v2h2h967.3h1.4l0.5-1.3L1214.4,2.7
			L1215.4,0L1215.4,0z"/>
	</g>
	<g>
		<polygon class="st2" points="1159.6,2 1054.9,272.3 1107.8,272.3 1212.5,2 		"/>
	</g>
	<g>
		<polygon class="st2" points="1089.5,2 984.8,272.3 1014.8,272.3 1119.6,2 		"/>
	</g>
	<g>
		<polygon class="st2" points="140.4,2 140.4,272.3 944.8,272.3 1049.5,2 		"/>
	</g>
</g>
<polygon id="slash_2_" class="st3" points="1119.6,2 1014.8,272.3 1054.9,272.3 1159.6,2 "/>
<polygon id="slash_3_" class="st3" points="1049.5,2 944.8,272.3 984.8,272.3 1089.5,2 "/>
<path id="Leaf" class="st4" d="M140.4,272.3h5.6l-1.8-36.5l5.1-0.7c23.2,2.7,43.9,5.1,67.1,7.9l-5.9-19.8c-0.9-3.5,0.4-7.3,3-9.4
	l67.3-55.9l-13.9-6.7c-6.1-2.2-4.4-5.7-2.2-14.2L275,98.7l-39.1,8.4c-3.8,0.6-6.4-1.9-6.9-4.2l-5.1-18L193,120.3
	c-4.4,5.7-13.3,5.7-10.5-7.4l13.2-71.8L178,50.5c-5,2.8-9.9,3.3-12.8-1.8L140.4,2l-24.9,46.7c-2.8,5.1-7.8,4.6-12.7,1.8l-17.7-9.4
	l13.2,71.7c2.7,13.1-6.2,13.1-10.5,7.5L56.9,84.9l-5,18c-0.6,2.4-3.1,4.8-6.9,4.3L5.9,98.7l10.3,38.2c2.2,8.5,3.9,12-2.2,14.3
	l-14,6.7l67.3,55.9c2.7,2.1,4,5.9,3.1,9.4L64.5,243c23.1-2.8,43.9-5.2,67.1-7.9l5.1,0.7l-1.8,36.5H140.4L140.4,272.3z"/>
<g id="CANDEV">
	<path class="st5" d="M423.3,87.1l-15.8,18.8c-5.1-4.6-10.5-7.9-17.2-7.9c-11.6,0-17.6,11.1-17.6,39.1c0,28.1,6.3,38.8,18.1,38.8
		c6.8,0,12.1-3.9,18.8-9.1l14.9,18.6c-8.2,8.8-20.7,16.7-35.8,16.7c-31.8,0-51.9-21.1-51.9-64.9c0-42.3,20.7-64.2,51.8-64.2
		C402.6,72.8,414,78.3,423.3,87.1z"/>
	<path class="st5" d="M490.9,174.3h-23.2l-3.7,24.2h-35.1l30.2-122.2h41.1l30,122.2h-35.5L490.9,174.3z M487,150.1l-7.9-49.3
		l-7.7,49.3H487z"/>
	<path class="st5" d="M624.6,198.5h-42.5l-20.5-91.6c1.6,12.8,4.4,29.8,4.4,52.3v39.3h-29.5V76.3h41.9l21.2,92
		c-2.3-14.7-4.7-29.1-4.7-50.7V76.3h29.7L624.6,198.5L624.6,198.5z"/>
	<path class="st6" d="M728.7,136.9c0,48.8-24.2,61.6-55.1,61.6h-37.7V76.3H672C701.5,76.3,728.7,85.3,728.7,136.9z M670.6,100.7
		v73.2h4.9c12.8,0,17.7-8.4,17.7-37c0-28.8-5.4-36.2-17.2-36.2H670.6z"/>
	<path class="st6" d="M805.7,100.4h-33.5v24.4h29.5v23.5h-29.5v25.8H808v24.4h-70.6V76.3h71.8L805.7,100.4z"/>
	<path class="st6" d="M888.6,198.5h-45.5L815.9,76.3h35.3l15.1,97.6l13.2-97.6h34.2L888.6,198.5z"/>
</g>
</svg>
